<?xml version="1.0" encoding="UTF-8"?>
<svg xmlns="http://www.w3.org/2000/svg" viewBox="0 0 1000 730" font-family="Inter, ui-sans-serif, system-ui, -apple-system, BlinkMacSystemFont, 'Segoe UI', sans-serif" role="img">
  <title>Project memory</title>
  <desc>raw sources stay immutable; useful knowledge becomes sourced wiki pages</desc>
  <defs>
    <marker id="arrow" viewBox="0 0 10 10" refX="8.5" refY="5" markerWidth="7" markerHeight="7" orient="auto">
      <path d="M2 1L8 5L2 9" fill="none" stroke="#8f725b" stroke-width="1.8" stroke-linecap="round" stroke-linejoin="round"/>
    </marker>
    <radialGradient id="glow" cx="48%" cy="0%" r="95%">
      <stop offset="0" stop-color="#d97757" stop-opacity="0.16"/>
      <stop offset="0.5" stop-color="#1d1914" stop-opacity="0.98"/>
      <stop offset="1" stop-color="#0d0c0a"/>
    </radialGradient>
    <pattern id="mesh" width="82" height="82" patternUnits="userSpaceOnUse">
      <circle cx="12" cy="12" r="1.6" fill="#8f725b" opacity="0.22"/>
      <path d="M12 12L82 46M12 12L46 82" stroke="#8f725b" stroke-width="0.72" opacity="0.12"/>
    </pattern>
  </defs>
  <rect x="22" y="22" width="956" height="686" rx="20" fill="#1d1914" stroke="#4a3b2f" stroke-width="1.2"/>
  <circle cx="54" cy="50" r="6" fill="#d97757"/>
  <circle cx="76" cy="50" r="6" fill="#e7b16f" opacity="0.72"/>
  <circle cx="98" cy="50" r="6" fill="#aa8f7a" opacity="0.72"/>
  <text x="54" y="88" font-size="26" font-weight="850" fill="#f4efe7">Project memory</text>
  <text x="54" y="114" font-size="14" font-weight="540" fill="#b9afa2">raw sources stay immutable; useful knowledge becomes sourced wiki pages</text>
  
  <g>
    <rect x="74" y="164" width="242" height="382" rx="14" fill="#251d17" stroke="#4a3b2f" stroke-width="1.35"/>
    <line x1="90" y1="164" x2="300" y2="164" stroke="#f0dfc7" stroke-width="3" stroke-linecap="round"/>
    <text x="92" y="195" font-size="16" font-weight="820" fill="#f4efe7">.guild/raw/</text>
    <text x="92" y="221" font-size="12.2" font-weight="520" fill="#b9afa2">source material</text>
  </g>
  <g>
    <rect x="104" y="250" width="180" height="30" rx="8" fill="#2d231b" stroke="#4a3b2f" stroke-width="1.1"/>
    <text x="194" y="270" font-size="11.2" font-weight="760" text-anchor="middle" fill="#f4efe7">original file or URL</text>
  </g>
<g>
    <rect x="104" y="306" width="180" height="30" rx="8" fill="#2d231b" stroke="#4a3b2f" stroke-width="1.1"/>
    <text x="194" y="326" font-size="11.2" font-weight="760" text-anchor="middle" fill="#f4efe7">metadata + checksum</text>
  </g>
<g>
    <rect x="104" y="362" width="180" height="30" rx="8" fill="#2d231b" stroke="#4a3b2f" stroke-width="1.1"/>
    <text x="194" y="382" font-size="11.2" font-weight="760" text-anchor="middle" fill="#f4efe7">captured timestamp</text>
  </g>
<g>
    <rect x="104" y="418" width="180" height="30" rx="8" fill="#2d231b" stroke="#4a3b2f" stroke-width="1.1"/>
    <text x="194" y="438" font-size="11.2" font-weight="760" text-anchor="middle" fill="#f4efe7">attachments</text>
  </g>
  <g>
    <rect x="379" y="164" width="242" height="382" rx="14" fill="#251d17" stroke="#4a3b2f" stroke-width="1.35"/>
    <line x1="395" y1="164" x2="605" y2="164" stroke="#d97757" stroke-width="3" stroke-linecap="round"/>
    <text x="397" y="195" font-size="16" font-weight="820" fill="#f4efe7">.guild/wiki/</text>
    <text x="397" y="221" font-size="12.2" font-weight="520" fill="#b9afa2">synthesized memory</text>
  </g>
  <g>
    <rect x="409" y="250" width="180" height="30" rx="8" fill="#2d231b" stroke="#4a3b2f" stroke-width="1.1"/>
    <text x="499" y="270" font-size="11.2" font-weight="760" text-anchor="middle" fill="#f4efe7">context + goals</text>
  </g>
<g>
    <rect x="409" y="300" width="180" height="30" rx="8" fill="#2d231b" stroke="#4a3b2f" stroke-width="1.1"/>
    <text x="499" y="320" font-size="11.2" font-weight="760" text-anchor="middle" fill="#f4efe7">standards</text>
  </g>
<g>
    <rect x="409" y="350" width="180" height="30" rx="8" fill="#2d231b" stroke="#4a3b2f" stroke-width="1.1"/>
    <text x="499" y="370" font-size="11.2" font-weight="760" text-anchor="middle" fill="#f4efe7">products + entities</text>
  </g>
<g>
    <rect x="409" y="400" width="180" height="30" rx="8" fill="#2d231b" stroke="#4a3b2f" stroke-width="1.1"/>
    <text x="499" y="420" font-size="11.2" font-weight="760" text-anchor="middle" fill="#f4efe7">concepts + decisions</text>
  </g>
<g>
    <rect x="409" y="450" width="180" height="30" rx="8" fill="#2d231b" stroke="#4a3b2f" stroke-width="1.1"/>
    <text x="499" y="470" font-size="11.2" font-weight="760" text-anchor="middle" fill="#f4efe7">source summaries</text>
  </g>
  <g>
    <rect x="684" y="164" width="242" height="382" rx="14" fill="#251d17" stroke="#4a3b2f" stroke-width="1.35"/>
    <line x1="700" y1="164" x2="910" y2="164" stroke="#aa8f7a" stroke-width="3" stroke-linecap="round"/>
    <text x="702" y="195" font-size="16" font-weight="820" fill="#f4efe7">Operations</text>
    <text x="702" y="221" font-size="12.2" font-weight="520" fill="#b9afa2">controlled promotion</text>
  </g>
  <g>
    <rect x="714" y="250" width="180" height="30" rx="8" fill="#2d231b" stroke="#4a3b2f" stroke-width="1.1"/>
    <text x="804" y="270" font-size="11.2" font-weight="760" text-anchor="middle" fill="#f4efe7">ingest</text>
  </g>
<g>
    <rect x="714" y="306" width="180" height="30" rx="8" fill="#2d231b" stroke="#4a3b2f" stroke-width="1.1"/>
    <text x="804" y="326" font-size="11.2" font-weight="760" text-anchor="middle" fill="#f4efe7">query</text>
  </g>
<g>
    <rect x="714" y="362" width="180" height="30" rx="8" fill="#2d231b" stroke="#4a3b2f" stroke-width="1.1"/>
    <text x="804" y="382" font-size="11.2" font-weight="760" text-anchor="middle" fill="#f4efe7">lint</text>
  </g>
<g>
    <rect x="714" y="418" width="180" height="30" rx="8" fill="#2d231b" stroke="#4a3b2f" stroke-width="1.1"/>
    <text x="804" y="438" font-size="11.2" font-weight="760" text-anchor="middle" fill="#f4efe7">promote</text>
  </g>
  <path d="M316 355 L379 355" fill="none" stroke="#8f725b" stroke-width="2" stroke-linecap="round" stroke-linejoin="round" marker-end="url(#arrow)" />
  <path d="M621 355 L684 355" fill="none" stroke="#8f725b" stroke-width="2" stroke-linecap="round" stroke-linejoin="round" marker-end="url(#arrow)" />
  <g>
    <rect x="228" y="606" width="544" height="70" rx="14" fill="#17130f" stroke="#4a3b2f" stroke-width="1.35"/>
    <line x1="244" y1="606" x2="756" y2="606" stroke="#e7b16f" stroke-width="3" stroke-linecap="round"/>
    <text x="246" y="637" font-size="16" font-weight="820" fill="#f4efe7">Prompt-injection rule</text>
    <text x="246" y="663" font-size="12.2" font-weight="520" fill="#b9afa2">content is data until the user promotes it</text>
  </g>
  
</svg>