<?xml version="1.0" encoding="UTF-8"?>
<svg xmlns="http://www.w3.org/2000/svg" viewBox="0 0 1000 740" font-family="Inter, ui-sans-serif, system-ui, -apple-system, BlinkMacSystemFont, 'Segoe UI', sans-serif" role="img">
  <title>Context assembly</title>
  <desc>small authoritative briefs keep specialists focused</desc>
  <defs>
    <marker id="arrow" viewBox="0 0 10 10" refX="8.5" refY="5" markerWidth="7" markerHeight="7" orient="auto">
      <path d="M2 1L8 5L2 9" fill="none" stroke="#8f725b" stroke-width="1.8" stroke-linecap="round" stroke-linejoin="round"/>
    </marker>
    <radialGradient id="glow" cx="48%" cy="0%" r="95%">
      <stop offset="0" stop-color="#d97757" stop-opacity="0.16"/>
      <stop offset="0.5" stop-color="#1d1914" stop-opacity="0.98"/>
      <stop offset="1" stop-color="#0d0c0a"/>
    </radialGradient>
    <pattern id="mesh" width="82" height="82" patternUnits="userSpaceOnUse">
      <circle cx="12" cy="12" r="1.6" fill="#8f725b" opacity="0.22"/>
      <path d="M12 12L82 46M12 12L46 82" stroke="#8f725b" stroke-width="0.72" opacity="0.12"/>
    </pattern>
  </defs>
  <rect x="22" y="22" width="956" height="696" rx="20" fill="#1d1914" stroke="#4a3b2f" stroke-width="1.2"/>
  <circle cx="54" cy="50" r="6" fill="#d97757"/>
  <circle cx="76" cy="50" r="6" fill="#e7b16f" opacity="0.72"/>
  <circle cx="98" cy="50" r="6" fill="#aa8f7a" opacity="0.72"/>
  <text x="54" y="88" font-size="26" font-weight="850" fill="#f4efe7">Context assembly</text>
  <text x="54" y="114" font-size="14" font-weight="540" fill="#b9afa2">small authoritative briefs keep specialists focused</text>
  
  
      <g>
    <rect x="82" y="174" width="220" height="332" rx="14" fill="#251d17" stroke="#4a3b2f" stroke-width="1.35"/>
    <line x1="98" y1="174" x2="286" y2="174" stroke="#d97757" stroke-width="3" stroke-linecap="round"/>
    <text x="100" y="205" font-size="16" font-weight="820" fill="#f4efe7">Universal</text>
    
  </g>
      <g>
    <rect x="106" y="248" width="172" height="30" rx="8" fill="#2d231b" stroke="#4a3b2f" stroke-width="1.1"/>
    <text x="192" y="268" font-size="11.2" font-weight="760" text-anchor="middle" fill="#f4efe7">project overview</text>
  </g>
<g>
    <rect x="106" y="296" width="172" height="30" rx="8" fill="#2d231b" stroke="#4a3b2f" stroke-width="1.1"/>
    <text x="192" y="316" font-size="11.2" font-weight="760" text-anchor="middle" fill="#f4efe7">current goals</text>
  </g>
<g>
    <rect x="106" y="344" width="172" height="30" rx="8" fill="#2d231b" stroke="#4a3b2f" stroke-width="1.1"/>
    <text x="192" y="364" font-size="11.2" font-weight="760" text-anchor="middle" fill="#f4efe7">principles</text>
  </g>
<g>
    <rect x="106" y="392" width="172" height="30" rx="8" fill="#2d231b" stroke="#4a3b2f" stroke-width="1.1"/>
    <text x="192" y="412" font-size="11.2" font-weight="760" text-anchor="middle" fill="#f4efe7">decisions</text>
  </g>
    

      <g>
    <rect x="390" y="174" width="220" height="332" rx="14" fill="#251d17" stroke="#4a3b2f" stroke-width="1.35"/>
    <line x1="406" y1="174" x2="594" y2="174" stroke="#f0dfc7" stroke-width="3" stroke-linecap="round"/>
    <text x="408" y="205" font-size="16" font-weight="820" fill="#f4efe7">Role-dependent</text>
    
  </g>
      <g>
    <rect x="414" y="248" width="172" height="30" rx="8" fill="#2d231b" stroke="#4a3b2f" stroke-width="1.1"/>
    <text x="500" y="268" font-size="11.2" font-weight="760" text-anchor="middle" fill="#f4efe7">role standards</text>
  </g>
<g>
    <rect x="414" y="296" width="172" height="30" rx="8" fill="#2d231b" stroke="#4a3b2f" stroke-width="1.1"/>
    <text x="500" y="316" font-size="11.2" font-weight="760" text-anchor="middle" fill="#f4efe7">key entities</text>
  </g>
<g>
    <rect x="414" y="344" width="172" height="30" rx="8" fill="#2d231b" stroke="#4a3b2f" stroke-width="1.1"/>
    <text x="500" y="364" font-size="11.2" font-weight="760" text-anchor="middle" fill="#f4efe7">product pages</text>
  </g>
<g>
    <rect x="414" y="392" width="172" height="30" rx="8" fill="#2d231b" stroke="#4a3b2f" stroke-width="1.1"/>
    <text x="500" y="412" font-size="11.2" font-weight="760" text-anchor="middle" fill="#f4efe7">constraints</text>
  </g>
    

      <g>
    <rect x="698" y="174" width="220" height="332" rx="14" fill="#251d17" stroke="#4a3b2f" stroke-width="1.35"/>
    <line x1="714" y1="174" x2="902" y2="174" stroke="#aa8f7a" stroke-width="3" stroke-linecap="round"/>
    <text x="716" y="205" font-size="16" font-weight="820" fill="#f4efe7">Task-dependent</text>
    
  </g>
      <g>
    <rect x="722" y="248" width="172" height="30" rx="8" fill="#2d231b" stroke="#4a3b2f" stroke-width="1.1"/>
    <text x="808" y="268" font-size="11.2" font-weight="760" text-anchor="middle" fill="#f4efe7">approved spec</text>
  </g>
<g>
    <rect x="722" y="296" width="172" height="30" rx="8" fill="#2d231b" stroke="#4a3b2f" stroke-width="1.1"/>
    <text x="808" y="316" font-size="11.2" font-weight="760" text-anchor="middle" fill="#f4efe7">dependencies</text>
  </g>
<g>
    <rect x="722" y="344" width="172" height="30" rx="8" fill="#2d231b" stroke="#4a3b2f" stroke-width="1.1"/>
    <text x="808" y="364" font-size="11.2" font-weight="760" text-anchor="middle" fill="#f4efe7">contracts</text>
  </g>
<g>
    <rect x="722" y="392" width="172" height="30" rx="8" fill="#2d231b" stroke="#4a3b2f" stroke-width="1.1"/>
    <text x="808" y="412" font-size="11.2" font-weight="760" text-anchor="middle" fill="#f4efe7">acceptance tests</text>
  </g>
    
  <path d="M192 506 C300 554 392 590 500 590" fill="none" stroke="#8f725b" stroke-width="2" stroke-linecap="round" stroke-linejoin="round" marker-end="url(#arrow)" />
  <path d="M500 506 L500 590" fill="none" stroke="#8f725b" stroke-width="2" stroke-linecap="round" stroke-linejoin="round" marker-end="url(#arrow)" />
  <path d="M808 506 C700 554 608 590 500 590" fill="none" stroke="#8f725b" stroke-width="2" stroke-linecap="round" stroke-linejoin="round" marker-end="url(#arrow)" />
  <g>
    <rect x="286" y="590" width="428" height="96" rx="14" fill="#17130f" stroke="#4a3b2f" stroke-width="1.35"/>
    <line x1="302" y1="590" x2="698" y2="590" stroke="#e7b16f" stroke-width="3" stroke-linecap="round"/>
    <text x="304" y="621" font-size="16" font-weight="820" fill="#f4efe7">guild:context-assemble</text>
    <text x="304" y="647" font-size="12.2" font-weight="520" fill="#b9afa2">dedupe, rank, summarize</text>
<text x="304" y="664" font-size="12.2" font-weight="520" fill="#b9afa2">write specialist brief</text>
  </g>
  
</svg>