<?xml version="1.0" encoding="UTF-8"?>
<svg xmlns="http://www.w3.org/2000/svg" viewBox="0 0 1000 760" font-family="Inter, ui-sans-serif, system-ui, -apple-system, BlinkMacSystemFont, 'Segoe UI', sans-serif" role="img">
  <title>Team composition</title>
  <desc>approved specs become small scoped teams with explicit gap handling</desc>
  <defs>
    <marker id="arrow" viewBox="0 0 10 10" refX="8.5" refY="5" markerWidth="7" markerHeight="7" orient="auto">
      <path d="M2 1L8 5L2 9" fill="none" stroke="#8f725b" stroke-width="1.8" stroke-linecap="round" stroke-linejoin="round"/>
    </marker>
    <radialGradient id="glow" cx="48%" cy="0%" r="95%">
      <stop offset="0" stop-color="#d97757" stop-opacity="0.16"/>
      <stop offset="0.5" stop-color="#1d1914" stop-opacity="0.98"/>
      <stop offset="1" stop-color="#0d0c0a"/>
    </radialGradient>
    <pattern id="mesh" width="82" height="82" patternUnits="userSpaceOnUse">
      <circle cx="12" cy="12" r="1.6" fill="#8f725b" opacity="0.22"/>
      <path d="M12 12L82 46M12 12L46 82" stroke="#8f725b" stroke-width="0.72" opacity="0.12"/>
    </pattern>
  </defs>
  <rect x="22" y="22" width="956" height="716" rx="20" fill="#1d1914" stroke="#4a3b2f" stroke-width="1.2"/>
  <circle cx="54" cy="50" r="6" fill="#d97757"/>
  <circle cx="76" cy="50" r="6" fill="#e7b16f" opacity="0.72"/>
  <circle cx="98" cy="50" r="6" fill="#aa8f7a" opacity="0.72"/>
  <text x="54" y="88" font-size="26" font-weight="850" fill="#f4efe7">Team composition</text>
  <text x="54" y="114" font-size="14" font-weight="540" fill="#b9afa2">approved specs become small scoped teams with explicit gap handling</text>
  
  <g>
    <rect x="360" y="158" width="280" height="92" rx="14" fill="#251d17" stroke="#4a3b2f" stroke-width="1.35"/>
    <line x1="376" y1="158" x2="624" y2="158" stroke="#d97757" stroke-width="3" stroke-linecap="round"/>
    <text x="378" y="189" font-size="16" font-weight="820" fill="#f4efe7">Approved spec</text>
    <text x="378" y="215" font-size="12.2" font-weight="520" fill="#b9afa2">criteria and autonomy policy</text>
  </g>
  <g>
    <rect x="315" y="304" width="370" height="96" rx="14" fill="#251d17" stroke="#4a3b2f" stroke-width="1.35"/>
    <line x1="331" y1="304" x2="669" y2="304" stroke="#f0dfc7" stroke-width="3" stroke-linecap="round"/>
    <text x="333" y="335" font-size="16" font-weight="820" fill="#f4efe7">Domain matcher</text>
    <text x="333" y="361" font-size="12.2" font-weight="520" fill="#b9afa2">compare domain, constraints, triggers</text>
<text x="333" y="378" font-size="12.2" font-weight="520" fill="#b9afa2">and evidence needs</text>
  </g>
  <path d="M500 250 L500 304" fill="none" stroke="#8f725b" stroke-width="2" stroke-linecap="round" stroke-linejoin="round" marker-end="url(#arrow)" />
  <g>
    <rect x="84" y="492" width="300" height="104" rx="14" fill="#251d17" stroke="#4a3b2f" stroke-width="1.35"/>
    <line x1="100" y1="492" x2="368" y2="492" stroke="#d97757" stroke-width="3" stroke-linecap="round"/>
    <text x="102" y="523" font-size="16" font-weight="820" fill="#f4efe7">Existing specialists</text>
    <text x="102" y="549" font-size="12.2" font-weight="520" fill="#b9afa2">architect, backend, QA</text>
<text x="102" y="566" font-size="12.2" font-weight="520" fill="#b9afa2">copywriter, SEO, etc.</text>
  </g>
  <g>
    <rect x="616" y="492" width="300" height="104" rx="14" fill="#251d17" stroke="#4a3b2f" stroke-width="1.35"/>
    <line x1="632" y1="492" x2="900" y2="492" stroke="#e7b16f" stroke-width="3" stroke-linecap="round"/>
    <text x="634" y="523" font-size="16" font-weight="820" fill="#f4efe7">Coverage gaps</text>
    <text x="634" y="549" font-size="12.2" font-weight="520" fill="#b9afa2">proposed role name</text>
<text x="634" y="566" font-size="12.2" font-weight="520" fill="#b9afa2">scope and boundary risks</text>
  </g>
  <path d="M500 400 C430 448 318 466 234 492" fill="none" stroke="#8f725b" stroke-width="2" stroke-linecap="round" stroke-linejoin="round" marker-end="url(#arrow)" />
  <path d="M500 400 C570 448 682 466 766 492" fill="none" stroke="#8f725b" stroke-width="2" stroke-linecap="round" stroke-linejoin="round" marker-end="url(#arrow)" />
  <g>
    <rect x="285" y="632" width="430" height="78" rx="14" fill="#17130f" stroke="#4a3b2f" stroke-width="1.35"/>
    <line x1="301" y1="632" x2="699" y2="632" stroke="#aa8f7a" stroke-width="3" stroke-linecap="round"/>
    <text x="303" y="663" font-size="16" font-weight="820" fill="#f4efe7">User resolves gaps</text>
    <text x="303" y="689" font-size="12.2" font-weight="520" fill="#b9afa2">auto-create, skip with report, substitute, or compose</text>
  </g>
  <path d="M234 596 C248 646 262 671 285 671" fill="none" stroke="#8f725b" stroke-width="2" stroke-linecap="round" stroke-linejoin="round" marker-end="url(#arrow)" />
  <path d="M766 596 C752 646 738 671 715 671" fill="none" stroke="#8f725b" stroke-width="2" stroke-linecap="round" stroke-linejoin="round" marker-end="url(#arrow)" />
  
</svg>
