<?xml version="1.0" encoding="UTF-8"?>
<svg xmlns="http://www.w3.org/2000/svg" viewBox="0 0 64 64" role="img" aria-label="Guild">
  <defs>
    <linearGradient id="bg" x1="8" y1="4" x2="56" y2="60" gradientUnits="userSpaceOnUse">
      <stop offset="0" stop-color="#34261d"/>
      <stop offset="1" stop-color="#0d0c0a"/>
    </linearGradient>
  </defs>
  <rect width="64" height="64" rx="14" fill="#17130f"/>
  <path d="M32 7 13 14v14c0 14 7.5 24 19 29 11.5-5 19-15 19-29V14L32 7Z" fill="url(#bg)" stroke="#574637" stroke-width="2"/>
  <path d="M21 24h22M21 40h22M21 24l11 8-11 8M43 24l-11 8 11 8" fill="none" stroke="#b9afa2" stroke-width="2.5" stroke-linecap="round" stroke-linejoin="round"/>
  <g fill="#17130f" stroke="#d97757" stroke-width="2.8">
    <circle cx="21" cy="24" r="4.2"/>
    <circle cx="43" cy="24" r="4.2"/>
    <circle cx="21" cy="40" r="4.2"/>
    <circle cx="43" cy="40" r="4.2"/>
  </g>
  <circle cx="32" cy="32" r="7" fill="#221a14" stroke="#f0dfc7" stroke-width="2.8"/>
  <path d="M28 32h8M32 28v8" stroke="#d97757" stroke-width="2.8" stroke-linecap="round"/>
</svg>
